<?xml version="1.0" encoding="utf-8"?>
<!-- Generator: Adobe Illustrator 22.0.0, SVG Export Plug-In . SVG Version: 6.00 Build 0)  -->
<svg version="1.1" id="Layer_1" xmlns="http://www.w3.org/2000/svg" xmlns:xlink="http://www.w3.org/1999/xlink" x="0px" y="0px"
	 viewBox="0 0 100 100" style="enable-background:new 0 0 100 100;" xml:space="preserve">
<style type="text/css">
	.st0{fill:#D3BDA9;}
</style>
<path class="st0" d="M57.3,54.6c0,4-3.3,7.3-7.3,7.3s-7.3-3.3-7.3-7.3s3.3-7.3,7.3-7.3l0,0C54,47.3,57.3,50.5,57.3,54.6L57.3,54.6z
	 M79,52.1c0,0.1-0.1,0.2-0.1,0.2C78.3,53.1,66.4,72.5,50,72.5S21.7,53.1,21.2,52.3c0-0.1-0.1-0.2-0.1-0.2c-0.1-0.2-2-4.6,0.2-9.9
	c1.9-4.7,6.3-8.4,13-11.1c4.5-1.8,8.8-3.3,15.7-3.6h0.1c6.9,0.3,11.2,1.8,15.7,3.6c6.7,2.7,11.1,6.5,13,11.1
	C80.9,47.5,79,51.9,79,52.1z M71.3,55.8l-4.5-2.4c-0.7,0.4-1.5,0.5-2.3,0.5c-2.9,0-5.3-2.4-5.3-5.3l0,0c0-2.9,2.4-5.3,5.3-5.3l0,0
	c2.8,0,5,2.1,5.2,4.8l5.2,2.8c0.2-0.2,0.3-0.4,0.3-0.5c0.2-0.6,1.1-3.4-0.3-6.7c-1.5-3.6-5.1-6.6-10.8-8.9
	c-4.1-1.7-8.1-3.1-14.3-3.3c-6.2,0.2-10,1.6-14.3,3.3c-5.7,2.3-9.3,5.3-10.8,8.9c-1.4,3.3-0.5,6.1-0.3,6.7c0.1,0.1,0.2,0.3,0.3,0.5
	l5.2-2.8c0.2-2.7,2.5-4.8,5.2-4.8c2.9,0,5.3,2.4,5.3,5.3l0,0c0,2.9-2.4,5.3-5.3,5.3l0,0c-0.8,0-1.6-0.2-2.3-0.5l-4.5,2.4
	C33.2,61.1,41,68.5,50,68.5S66.8,61.1,71.3,55.8z"/>
</svg>
